<svg xmlns="http://www.w3.org/2000/svg" width="680.3149606299213" height="124.7244094488189">
<line x1="22.0" y1="2.0" x2="22.0" y2="38.0" stroke="black" />
<line x1="34.0" y1="2.0" x2="34.0" y2="38.0" stroke="black" />
<line x1="10.0" y1="14.0" x2="46.0" y2="14.0" stroke="black" />
<line x1="10.0" y1="26.0" x2="46.0" y2="26.0" stroke="black" />
<line x1="13.0" y1="5.0" x2="19.0" y2="11.0" stroke="black" stroke-width="2"/>
<line x1="13.0" y1="11.0" x2="19.0" y2="5.0" stroke="black" stroke-width="2"/>
<circle cx="28.0" cy="20.0" r="3.0" stroke="black" fill="none" stroke-width="2"/>
<circle cx="68.0" cy="20.0" r="6.0" stroke="black" fill="none" stroke-width="2"/>
<text x="86.0" y="29.0" font-size="27" fill="black" font-family="Consolas, Courier New, monospace">2</text>
<rect x="0.0" y="0.0" width="136" height="41" stroke="red" fill="none" rx="10" ry="10"/>
<line x1="158.06299212598427" y1="2.0" x2="158.06299212598427" y2="38.0" stroke="black" />
<line x1="170.06299212598427" y1="2.0" x2="170.06299212598427" y2="38.0" stroke="black" />
<line x1="146.06299212598427" y1="14.0" x2="182.06299212598427" y2="14.0" stroke="black" />
<line x1="146.06299212598427" y1="26.0" x2="182.06299212598427" y2="26.0" stroke="black" />
<circle cx="152.06299212598427" cy="8.0" r="3.0" stroke="black" fill="none" stroke-width="2"/>
<line x1="161.06299212598427" y1="5.0" x2="167.06299212598427" y2="11.0" stroke="black" stroke-width="2"/>
<line x1="161.06299212598427" y1="11.0" x2="167.06299212598427" y2="5.0" stroke="black" stroke-width="2"/>
<circle cx="204.06299212598427" cy="20.0" r="6.0" stroke="black" fill="none" stroke-width="2"/>
<text x="222.06299212598427" y="29.0" font-size="27" fill="black" font-family="Consolas, Courier New, monospace">3</text>
<rect x="136.06299212598427" y="0.0" width="136" height="41" stroke="red" fill="none" rx="10" ry="10"/>
<line x1="294.12598425196853" y1="2.0" x2="294.12598425196853" y2="38.0" stroke="black" />
<line x1="306.12598425196853" y1="2.0" x2="306.12598425196853" y2="38.0" stroke="black" />
<line x1="282.12598425196853" y1="14.0" x2="318.12598425196853" y2="14.0" stroke="black" />
<line x1="282.12598425196853" y1="26.0" x2="318.12598425196853" y2="26.0" stroke="black" />
<line x1="297.12598425196853" y1="5.0" x2="303.12598425196853" y2="11.0" stroke="black" stroke-width="2"/>
<line x1="297.12598425196853" y1="11.0" x2="303.12598425196853" y2="5.0" stroke="black" stroke-width="2"/>
<circle cx="288.12598425196853" cy="32.0" r="3.0" stroke="black" fill="none" stroke-width="2"/>
<circle cx="340.12598425196853" cy="20.0" r="6.0" stroke="black" fill="none" stroke-width="2"/>
<text x="358.12598425196853" y="29.0" font-size="27" fill="black" font-family="Consolas, Courier New, monospace">4</text>
<rect x="272.12598425196853" y="0.0" width="136" height="41" stroke="red" fill="none" rx="10" ry="10"/>
<line x1="430.1889763779528" y1="2.0" x2="430.1889763779528" y2="38.0" stroke="black" />
<line x1="442.1889763779528" y1="2.0" x2="442.1889763779528" y2="38.0" stroke="black" />
<line x1="418.1889763779528" y1="14.0" x2="454.1889763779528" y2="14.0" stroke="black" />
<line x1="418.1889763779528" y1="26.0" x2="454.1889763779528" y2="26.0" stroke="black" />
<line x1="433.1889763779528" y1="5.0" x2="439.1889763779528" y2="11.0" stroke="black" stroke-width="2"/>
<line x1="433.1889763779528" y1="11.0" x2="439.1889763779528" y2="5.0" stroke="black" stroke-width="2"/>
<circle cx="424.1889763779528" cy="20.0" r="3.0" stroke="black" fill="none" stroke-width="2"/>
<circle cx="476.1889763779528" cy="20.0" r="6.0" stroke="black" fill="none" stroke-width="2"/>
<text x="494.1889763779528" y="29.0" font-size="27" fill="black" font-family="Consolas, Courier New, monospace">5</text>
<rect x="408.1889763779528" y="0.0" width="136" height="41" stroke="red" fill="none" rx="10" ry="10"/>
<line x1="566.2519685039371" y1="2.0" x2="566.2519685039371" y2="38.0" stroke="black" />
<line x1="578.2519685039371" y1="2.0" x2="578.2519685039371" y2="38.0" stroke="black" />
<line x1="554.2519685039371" y1="14.0" x2="590.2519685039371" y2="14.0" stroke="black" />
<line x1="554.2519685039371" y1="26.0" x2="590.2519685039371" y2="26.0" stroke="black" />
<circle cx="560.2519685039371" cy="8.0" r="3.0" stroke="black" fill="none" stroke-width="2"/>
<line x1="569.2519685039371" y1="17.0" x2="575.2519685039371" y2="23.0" stroke="black" stroke-width="2"/>
<line x1="569.2519685039371" y1="23.0" x2="575.2519685039371" y2="17.0" stroke="black" stroke-width="2"/>
<circle cx="612.2519685039371" cy="20.0" r="6.0" stroke="black" fill="none" stroke-width="2"/>
<text x="630.2519685039371" y="29.0" font-size="27" fill="black" font-family="Consolas, Courier New, monospace">6</text>
<rect x="544.2519685039371" y="0.0" width="136" height="41" stroke="red" fill="none" rx="10" ry="10"/>
<line x1="22.0" y1="43.5748031496063" x2="22.0" y2="79.57480314960631" stroke="black" />
<line x1="34.0" y1="43.5748031496063" x2="34.0" y2="79.57480314960631" stroke="black" />
<line x1="10.0" y1="55.5748031496063" x2="46.0" y2="55.5748031496063" stroke="black" />
<line x1="10.0" y1="67.57480314960631" x2="46.0" y2="67.57480314960631" stroke="black" />
<line x1="13.0" y1="46.5748031496063" x2="19.0" y2="52.5748031496063" stroke="black" stroke-width="2"/>
<line x1="13.0" y1="52.5748031496063" x2="19.0" y2="46.5748031496063" stroke="black" stroke-width="2"/>
<circle cx="28.0" cy="49.5748031496063" r="3.0" stroke="black" fill="none" stroke-width="2"/>
<circle cx="68.0" cy="61.5748031496063" r="6.0" stroke="black" fill="none" stroke-width="2"/>
<text x="86.0" y="70.57480314960631" font-size="27" fill="black" font-family="Consolas, Courier New, monospace">7</text>
<rect x="0.0" y="41.5748031496063" width="136" height="41" stroke="red" fill="none" rx="10" ry="10"/>
<line x1="158.06299212598427" y1="43.5748031496063" x2="158.06299212598427" y2="79.57480314960631" stroke="black" />
<line x1="170.06299212598427" y1="43.5748031496063" x2="170.06299212598427" y2="79.57480314960631" stroke="black" />
<line x1="146.06299212598427" y1="55.5748031496063" x2="182.06299212598427" y2="55.5748031496063" stroke="black" />
<line x1="146.06299212598427" y1="67.57480314960631" x2="182.06299212598427" y2="67.57480314960631" stroke="black" />
<line x1="149.06299212598427" y1="46.5748031496063" x2="155.06299212598427" y2="52.5748031496063" stroke="black" stroke-width="2"/>
<line x1="149.06299212598427" y1="52.5748031496063" x2="155.06299212598427" y2="46.5748031496063" stroke="black" stroke-width="2"/>
<circle cx="176.06299212598427" cy="73.57480314960631" r="3.0" stroke="black" fill="none" stroke-width="2"/>
<circle cx="204.06299212598427" cy="61.5748031496063" r="6.0" stroke="black" fill="none" stroke-width="2"/>
<text x="222.06299212598427" y="70.57480314960631" font-size="27" fill="black" font-family="Consolas, Courier New, monospace">8</text>
<rect x="136.06299212598427" y="41.5748031496063" width="136" height="41" stroke="red" fill="none" rx="10" ry="10"/>
<line x1="294.12598425196853" y1="43.5748031496063" x2="294.12598425196853" y2="79.57480314960631" stroke="black" />
<line x1="306.12598425196853" y1="43.5748031496063" x2="306.12598425196853" y2="79.57480314960631" stroke="black" />
<line x1="282.12598425196853" y1="55.5748031496063" x2="318.12598425196853" y2="55.5748031496063" stroke="black" />
<line x1="282.12598425196853" y1="67.57480314960631" x2="318.12598425196853" y2="67.57480314960631" stroke="black" />
<circle cx="300.12598425196853" cy="49.5748031496063" r="3.0" stroke="black" fill="none" stroke-width="2"/>
<line x1="297.12598425196853" y1="58.5748031496063" x2="303.12598425196853" y2="64.57480314960631" stroke="black" stroke-width="2"/>
<line x1="297.12598425196853" y1="64.57480314960631" x2="303.12598425196853" y2="58.5748031496063" stroke="black" stroke-width="2"/>
<circle cx="340.12598425196853" cy="61.5748031496063" r="6.0" stroke="black" fill="none" stroke-width="2"/>
<text x="358.12598425196853" y="70.57480314960631" font-size="27" fill="black" font-family="Consolas, Courier New, monospace">9</text>
<rect x="272.12598425196853" y="41.5748031496063" width="136" height="41" stroke="red" fill="none" rx="10" ry="10"/>
<line x1="430.1889763779528" y1="43.5748031496063" x2="430.1889763779528" y2="79.57480314960631" stroke="black" />
<line x1="442.1889763779528" y1="43.5748031496063" x2="442.1889763779528" y2="79.57480314960631" stroke="black" />
<line x1="418.1889763779528" y1="55.5748031496063" x2="454.1889763779528" y2="55.5748031496063" stroke="black" />
<line x1="418.1889763779528" y1="67.57480314960631" x2="454.1889763779528" y2="67.57480314960631" stroke="black" />
<line x1="421.1889763779528" y1="46.5748031496063" x2="427.1889763779528" y2="52.5748031496063" stroke="black" stroke-width="2"/>
<line x1="421.1889763779528" y1="52.5748031496063" x2="427.1889763779528" y2="46.5748031496063" stroke="black" stroke-width="2"/>
<circle cx="448.1889763779528" cy="49.5748031496063" r="3.0" stroke="black" fill="none" stroke-width="2"/>
<circle cx="476.1889763779528" cy="61.5748031496063" r="6.0" stroke="black" fill="none" stroke-width="2"/>
<text x="494.1889763779528" y="70.57480314960631" font-size="27" fill="black" font-family="Consolas, Courier New, monospace">10</text>
<rect x="408.1889763779528" y="41.5748031496063" width="136" height="41" stroke="red" fill="none" rx="10" ry="10"/>
<line x1="566.2519685039371" y1="43.5748031496063" x2="566.2519685039371" y2="79.57480314960631" stroke="black" />
<line x1="578.2519685039371" y1="43.5748031496063" x2="578.2519685039371" y2="79.57480314960631" stroke="black" />
<line x1="554.2519685039371" y1="55.5748031496063" x2="590.2519685039371" y2="55.5748031496063" stroke="black" />
<line x1="554.2519685039371" y1="67.57480314960631" x2="590.2519685039371" y2="67.57480314960631" stroke="black" />
<line x1="569.2519685039371" y1="46.5748031496063" x2="575.2519685039371" y2="52.5748031496063" stroke="black" stroke-width="2"/>
<line x1="569.2519685039371" y1="52.5748031496063" x2="575.2519685039371" y2="46.5748031496063" stroke="black" stroke-width="2"/>
<circle cx="572.2519685039371" cy="61.5748031496063" r="3.0" stroke="black" fill="none" stroke-width="2"/>
<circle cx="612.2519685039371" cy="61.5748031496063" r="6.0" stroke="black" fill="none" stroke-width="2"/>
<text x="630.2519685039371" y="70.57480314960631" font-size="27" fill="black" font-family="Consolas, Courier New, monospace">11</text>
<rect x="544.2519685039371" y="41.5748031496063" width="136" height="41" stroke="red" fill="none" rx="10" ry="10"/>
<line x1="22.0" y1="85.1496062992126" x2="22.0" y2="121.1496062992126" stroke="black" />
<line x1="34.0" y1="85.1496062992126" x2="34.0" y2="121.1496062992126" stroke="black" />
<line x1="10.0" y1="97.1496062992126" x2="46.0" y2="97.1496062992126" stroke="black" />
<line x1="10.0" y1="109.1496062992126" x2="46.0" y2="109.1496062992126" stroke="black" />
<line x1="25.0" y1="88.1496062992126" x2="31.0" y2="94.1496062992126" stroke="black" stroke-width="2"/>
<line x1="25.0" y1="94.1496062992126" x2="31.0" y2="88.1496062992126" stroke="black" stroke-width="2"/>
<circle cx="28.0" cy="115.1496062992126" r="3.0" stroke="black" fill="none" stroke-width="2"/>
<circle cx="68.0" cy="103.1496062992126" r="6.0" stroke="black" fill="none" stroke-width="2"/>
<text x="86.0" y="112.1496062992126" font-size="27" fill="black" font-family="Consolas, Courier New, monospace">12</text>
<rect x="0.0" y="83.1496062992126" width="136" height="41" stroke="red" fill="none" rx="10" ry="10"/>
<line x1="158.06299212598427" y1="85.1496062992126" x2="158.06299212598427" y2="121.1496062992126" stroke="black" />
<line x1="170.06299212598427" y1="85.1496062992126" x2="170.06299212598427" y2="121.1496062992126" stroke="black" />
<line x1="146.06299212598427" y1="97.1496062992126" x2="182.06299212598427" y2="97.1496062992126" stroke="black" />
<line x1="146.06299212598427" y1="109.1496062992126" x2="182.06299212598427" y2="109.1496062992126" stroke="black" />
<line x1="149.06299212598427" y1="88.1496062992126" x2="155.06299212598427" y2="94.1496062992126" stroke="black" stroke-width="2"/>
<line x1="149.06299212598427" y1="94.1496062992126" x2="155.06299212598427" y2="88.1496062992126" stroke="black" stroke-width="2"/>
<circle cx="176.06299212598427" cy="103.1496062992126" r="3.0" stroke="black" fill="none" stroke-width="2"/>
<circle cx="204.06299212598427" cy="103.1496062992126" r="6.0" stroke="black" fill="none" stroke-width="2"/>
<text x="222.06299212598427" y="112.1496062992126" font-size="27" fill="black" font-family="Consolas, Courier New, monospace">13</text>
<rect x="136.06299212598427" y="83.1496062992126" width="136" height="41" stroke="red" fill="none" rx="10" ry="10"/>
</svg>