<svg xmlns="http://www.w3.org/2000/svg" width="540" height="170">
<line x1="30" y1="20" x2="30" y2="50" stroke="black" />
<line x1="40" y1="20" x2="40" y2="50" stroke="black" />
<line x1="20" y1="30" x2="50" y2="30" stroke="black" />
<line x1="20" y1="40" x2="50" y2="40" stroke="black" />
<line x1="22.5" y1="22.5" x2="27.5" y2="27.5" stroke="blue" stroke-width="2"/>
<line x1="22.5" y1="27.5" x2="27.5" y2="22.5" stroke="blue" stroke-width="2"/>
<circle cx="35.0" cy="35.0" r="2.5" stroke="red" fill="none" stroke-width="2"/>
<text x="60" y="40.0" font-size="25" fill="black">1</text>
<line x1="160" y1="20" x2="160" y2="50" stroke="black" />
<line x1="170" y1="20" x2="170" y2="50" stroke="black" />
<line x1="150" y1="30" x2="180" y2="30" stroke="black" />
<line x1="150" y1="40" x2="180" y2="40" stroke="black" />
<circle cx="155.0" cy="25.0" r="2.5" stroke="red" fill="none" stroke-width="2"/>
<line x1="162.5" y1="22.5" x2="167.5" y2="27.5" stroke="blue" stroke-width="2"/>
<line x1="162.5" y1="27.5" x2="167.5" y2="22.5" stroke="blue" stroke-width="2"/>
<text x="190" y="40.0" font-size="25" fill="black">2</text>
<line x1="290" y1="20" x2="290" y2="50" stroke="black" />
<line x1="300" y1="20" x2="300" y2="50" stroke="black" />
<line x1="280" y1="30" x2="310" y2="30" stroke="black" />
<line x1="280" y1="40" x2="310" y2="40" stroke="black" />
<line x1="292.5" y1="22.5" x2="297.5" y2="27.5" stroke="blue" stroke-width="2"/>
<line x1="292.5" y1="27.5" x2="297.5" y2="22.5" stroke="blue" stroke-width="2"/>
<circle cx="285.0" cy="45.0" r="2.5" stroke="red" fill="none" stroke-width="2"/>
<text x="320" y="40.0" font-size="25" fill="black">3</text>
<line x1="420" y1="20" x2="420" y2="50" stroke="black" />
<line x1="430" y1="20" x2="430" y2="50" stroke="black" />
<line x1="410" y1="30" x2="440" y2="30" stroke="black" />
<line x1="410" y1="40" x2="440" y2="40" stroke="black" />
<line x1="422.5" y1="22.5" x2="427.5" y2="27.5" stroke="blue" stroke-width="2"/>
<line x1="422.5" y1="27.5" x2="427.5" y2="22.5" stroke="blue" stroke-width="2"/>
<circle cx="415.0" cy="35.0" r="2.5" stroke="red" fill="none" stroke-width="2"/>
<text x="450" y="40.0" font-size="25" fill="black">4</text>
<line x1="30" y1="70" x2="30" y2="100" stroke="black" />
<line x1="40" y1="70" x2="40" y2="100" stroke="black" />
<line x1="20" y1="80" x2="50" y2="80" stroke="black" />
<line x1="20" y1="90" x2="50" y2="90" stroke="black" />
<circle cx="25.0" cy="75.0" r="2.5" stroke="red" fill="none" stroke-width="2"/>
<line x1="32.5" y1="82.5" x2="37.5" y2="87.5" stroke="blue" stroke-width="2"/>
<line x1="32.5" y1="87.5" x2="37.5" y2="82.5" stroke="blue" stroke-width="2"/>
<text x="60" y="90.0" font-size="25" fill="black">5</text>
<line x1="160" y1="70" x2="160" y2="100" stroke="black" />
<line x1="170" y1="70" x2="170" y2="100" stroke="black" />
<line x1="150" y1="80" x2="180" y2="80" stroke="black" />
<line x1="150" y1="90" x2="180" y2="90" stroke="black" />
<line x1="152.5" y1="72.5" x2="157.5" y2="77.5" stroke="blue" stroke-width="2"/>
<line x1="152.5" y1="77.5" x2="157.5" y2="72.5" stroke="blue" stroke-width="2"/>
<circle cx="165.0" cy="75.0" r="2.5" stroke="red" fill="none" stroke-width="2"/>
<text x="190" y="90.0" font-size="25" fill="black">6</text>
<line x1="290" y1="70" x2="290" y2="100" stroke="black" />
<line x1="300" y1="70" x2="300" y2="100" stroke="black" />
<line x1="280" y1="80" x2="310" y2="80" stroke="black" />
<line x1="280" y1="90" x2="310" y2="90" stroke="black" />
<line x1="282.5" y1="72.5" x2="287.5" y2="77.5" stroke="blue" stroke-width="2"/>
<line x1="282.5" y1="77.5" x2="287.5" y2="72.5" stroke="blue" stroke-width="2"/>
<circle cx="305.0" cy="95.0" r="2.5" stroke="red" fill="none" stroke-width="2"/>
<text x="320" y="90.0" font-size="25" fill="black">7</text>
<line x1="420" y1="70" x2="420" y2="100" stroke="black" />
<line x1="430" y1="70" x2="430" y2="100" stroke="black" />
<line x1="410" y1="80" x2="440" y2="80" stroke="black" />
<line x1="410" y1="90" x2="440" y2="90" stroke="black" />
<circle cx="425.0" cy="75.0" r="2.5" stroke="red" fill="none" stroke-width="2"/>
<line x1="422.5" y1="82.5" x2="427.5" y2="87.5" stroke="blue" stroke-width="2"/>
<line x1="422.5" y1="87.5" x2="427.5" y2="82.5" stroke="blue" stroke-width="2"/>
<text x="450" y="90.0" font-size="25" fill="black">8</text>
<line x1="30" y1="120" x2="30" y2="150" stroke="black" />
<line x1="40" y1="120" x2="40" y2="150" stroke="black" />
<line x1="20" y1="130" x2="50" y2="130" stroke="black" />
<line x1="20" y1="140" x2="50" y2="140" stroke="black" />
<line x1="22.5" y1="122.5" x2="27.5" y2="127.5" stroke="blue" stroke-width="2"/>
<line x1="22.5" y1="127.5" x2="27.5" y2="122.5" stroke="blue" stroke-width="2"/>
<circle cx="45.0" cy="125.0" r="2.5" stroke="red" fill="none" stroke-width="2"/>
<text x="60" y="140.0" font-size="25" fill="black">9</text>
<line x1="160" y1="120" x2="160" y2="150" stroke="black" />
<line x1="170" y1="120" x2="170" y2="150" stroke="black" />
<line x1="150" y1="130" x2="180" y2="130" stroke="black" />
<line x1="150" y1="140" x2="180" y2="140" stroke="black" />
<line x1="162.5" y1="122.5" x2="167.5" y2="127.5" stroke="blue" stroke-width="2"/>
<line x1="162.5" y1="127.5" x2="167.5" y2="122.5" stroke="blue" stroke-width="2"/>
<circle cx="165.0" cy="135.0" r="2.5" stroke="red" fill="none" stroke-width="2"/>
<text x="190" y="140.0" font-size="25" fill="black">10</text>
<line x1="290" y1="120" x2="290" y2="150" stroke="black" />
<line x1="300" y1="120" x2="300" y2="150" stroke="black" />
<line x1="280" y1="130" x2="310" y2="130" stroke="black" />
<line x1="280" y1="140" x2="310" y2="140" stroke="black" />
<line x1="292.5" y1="122.5" x2="297.5" y2="127.5" stroke="blue" stroke-width="2"/>
<line x1="292.5" y1="127.5" x2="297.5" y2="122.5" stroke="blue" stroke-width="2"/>
<circle cx="295.0" cy="145.0" r="2.5" stroke="red" fill="none" stroke-width="2"/>
<text x="320" y="140.0" font-size="25" fill="black">11</text>
<line x1="420" y1="120" x2="420" y2="150" stroke="black" />
<line x1="430" y1="120" x2="430" y2="150" stroke="black" />
<line x1="410" y1="130" x2="440" y2="130" stroke="black" />
<line x1="410" y1="140" x2="440" y2="140" stroke="black" />
<line x1="412.5" y1="122.5" x2="417.5" y2="127.5" stroke="blue" stroke-width="2"/>
<line x1="412.5" y1="127.5" x2="417.5" y2="122.5" stroke="blue" stroke-width="2"/>
<circle cx="435.0" cy="135.0" r="2.5" stroke="red" fill="none" stroke-width="2"/>
<text x="450" y="140.0" font-size="25" fill="black">12</text>
</svg>